<?xml version="1.0" encoding="UTF-8" standalone="no"?>
<!DOCTYPE svg PUBLIC "-//W3C//DTD SVG 1.1//EN"
 "http://www.w3.org/Graphics/SVG/1.1/DTD/svg11.dtd">
<!-- Generated by graphviz version 2.47.3 (20210619.1520)
 -->
<!-- Title: dependencies Pages: 1 -->
<svg width="2119pt" height="247pt"
 viewBox="0.00 0.00 2119.00 246.80" xmlns="http://www.w3.org/2000/svg" xmlns:xlink="http://www.w3.org/1999/xlink">
<g id="graph0" class="graph" transform="scale(1 1) rotate(0) translate(4 242.8)">
<title>dependencies</title>
<polygon fill="white" stroke="transparent" points="-4,4 -4,-242.8 2115,-242.8 2115,4 -4,4"/>
<text text-anchor="middle" x="1055.5" y="-8.2" font-family="sans-serif" font-size="14.00">dependencies</text>
<g id="clust1" class="cluster">
<title>cluster_AppModule</title>
<polygon fill="none" stroke="black" stroke-dasharray="1,5" points="8,-32.8 8,-230.8 2103,-230.8 2103,-32.8 8,-32.8"/>
</g>
<g id="clust16" class="cluster">
<title>cluster_AppModule_imports</title>
<polygon fill="none" stroke="black" points="1951,-40.8 1951,-92.8 2095,-92.8 2095,-40.8 1951,-40.8"/>
</g>
<g id="clust18" class="cluster">
<title>cluster_AppModule_bootstrap</title>
<polygon fill="none" stroke="black" points="1052,-170.8 1052,-222.8 1176,-222.8 1176,-170.8 1052,-170.8"/>
</g>
<g id="clust2" class="cluster">
<title>cluster_AppModule_declarations</title>
<polygon fill="none" stroke="black" points="16,-40.8 16,-92.8 1943,-92.8 1943,-40.8 16,-40.8"/>
</g>
<!-- AlertasComponent -->
<g id="node1" class="node">
<title>AlertasComponent</title>
<polygon fill="#ffffb3" stroke="black" points="1934.75,-84.8 1813.25,-84.8 1813.25,-48.8 1934.75,-48.8 1934.75,-84.8"/>
<text text-anchor="middle" x="1874" y="-62.6" font-family="Times,serif" font-size="14.00">AlertasComponent</text>
</g>
<!-- AppModule -->
<g id="node14" class="node">
<title>AppModule</title>
<polygon fill="#8dd3c7" stroke="black" points="1155.66,-149.8 1152.66,-153.8 1131.66,-153.8 1128.66,-149.8 1072.34,-149.8 1072.34,-113.8 1155.66,-113.8 1155.66,-149.8"/>
<text text-anchor="middle" x="1114" y="-127.6" font-family="Times,serif" font-size="14.00">AppModule</text>
</g>
<!-- AlertasComponent&#45;&gt;AppModule -->
<g id="edge1" class="edge">
<title>AlertasComponent&#45;&gt;AppModule</title>
<path fill="none" stroke="black" d="M1874,-84.84C1874,-106.46 1874,-139.8 1874,-139.8 1874,-139.8 1165.67,-139.8 1165.67,-139.8"/>
<polygon fill="black" stroke="black" points="1165.67,-136.3 1155.67,-139.8 1165.67,-143.3 1165.67,-136.3"/>
</g>
<!-- AppComponent -->
<g id="node2" class="node">
<title>AppComponent</title>
<polygon fill="#ffffb3" stroke="black" points="1794.94,-84.8 1689.06,-84.8 1689.06,-48.8 1794.94,-48.8 1794.94,-84.8"/>
<text text-anchor="middle" x="1742" y="-62.6" font-family="Times,serif" font-size="14.00">AppComponent</text>
</g>
<!-- AppComponent&#45;&gt;AppModule -->
<g id="edge2" class="edge">
<title>AppComponent&#45;&gt;AppModule</title>
<path fill="none" stroke="black" d="M1742,-85.02C1742,-105.17 1742,-134.8 1742,-134.8 1742,-134.8 1165.69,-134.8 1165.69,-134.8"/>
<polygon fill="black" stroke="black" points="1165.69,-131.3 1155.69,-134.8 1165.69,-138.3 1165.69,-131.3"/>
</g>
<!-- CadastrarComponent -->
<g id="node3" class="node">
<title>CadastrarComponent</title>
<polygon fill="#ffffb3" stroke="black" points="1671.47,-84.8 1536.53,-84.8 1536.53,-48.8 1671.47,-48.8 1671.47,-84.8"/>
<text text-anchor="middle" x="1604" y="-62.6" font-family="Times,serif" font-size="14.00">CadastrarComponent</text>
</g>
<!-- CadastrarComponent&#45;&gt;AppModule -->
<g id="edge3" class="edge">
<title>CadastrarComponent&#45;&gt;AppModule</title>
<path fill="none" stroke="black" d="M1604,-85.02C1604,-103.63 1604,-129.8 1604,-129.8 1604,-129.8 1165.78,-129.8 1165.78,-129.8"/>
<polygon fill="black" stroke="black" points="1165.78,-126.3 1155.78,-129.8 1165.78,-133.3 1165.78,-126.3"/>
</g>
<!-- EntrarComponent -->
<g id="node4" class="node">
<title>EntrarComponent</title>
<polygon fill="#ffffb3" stroke="black" points="1518.31,-84.8 1401.69,-84.8 1401.69,-48.8 1518.31,-48.8 1518.31,-84.8"/>
<text text-anchor="middle" x="1460" y="-62.6" font-family="Times,serif" font-size="14.00">EntrarComponent</text>
</g>
<!-- EntrarComponent&#45;&gt;AppModule -->
<g id="edge4" class="edge">
<title>EntrarComponent&#45;&gt;AppModule</title>
<path fill="none" stroke="black" d="M1460,-84.83C1460,-101.86 1460,-124.8 1460,-124.8 1460,-124.8 1165.74,-124.8 1165.74,-124.8"/>
<polygon fill="black" stroke="black" points="1165.74,-121.3 1155.74,-124.8 1165.74,-128.3 1165.74,-121.3"/>
</g>
<!-- InicioComponent -->
<g id="node5" class="node">
<title>InicioComponent</title>
<polygon fill="#ffffb3" stroke="black" points="1383.99,-84.8 1270.01,-84.8 1270.01,-48.8 1383.99,-48.8 1383.99,-84.8"/>
<text text-anchor="middle" x="1327" y="-62.6" font-family="Times,serif" font-size="14.00">InicioComponent</text>
</g>
<!-- InicioComponent&#45;&gt;AppModule -->
<g id="edge5" class="edge">
<title>InicioComponent&#45;&gt;AppModule</title>
<path fill="none" stroke="black" d="M1327,-85.04C1327,-100.37 1327,-119.8 1327,-119.8 1327,-119.8 1165.83,-119.8 1165.83,-119.8"/>
<polygon fill="black" stroke="black" points="1165.83,-116.3 1155.83,-119.8 1165.83,-123.3 1165.83,-116.3"/>
</g>
<!-- MenuComponent -->
<g id="node6" class="node">
<title>MenuComponent</title>
<polygon fill="#ffffb3" stroke="black" points="1251.99,-84.8 1138.01,-84.8 1138.01,-48.8 1251.99,-48.8 1251.99,-84.8"/>
<text text-anchor="middle" x="1195" y="-62.6" font-family="Times,serif" font-size="14.00">MenuComponent</text>
</g>
<!-- MenuComponent&#45;&gt;AppModule -->
<g id="edge6" class="edge">
<title>MenuComponent&#45;&gt;AppModule</title>
<path fill="none" stroke="black" d="M1146.92,-84.91C1146.92,-84.91 1146.92,-103.79 1146.92,-103.79"/>
<polygon fill="black" stroke="black" points="1143.42,-103.79 1146.92,-113.79 1150.42,-103.79 1143.42,-103.79"/>
</g>
<!-- PostagemDeleteComponent -->
<g id="node7" class="node">
<title>PostagemDeleteComponent</title>
<polygon fill="#ffffb3" stroke="black" points="1120.3,-84.8 947.7,-84.8 947.7,-48.8 1120.3,-48.8 1120.3,-84.8"/>
<text text-anchor="middle" x="1034" y="-62.6" font-family="Times,serif" font-size="14.00">PostagemDeleteComponent</text>
</g>
<!-- PostagemDeleteComponent&#45;&gt;AppModule -->
<g id="edge7" class="edge">
<title>PostagemDeleteComponent&#45;&gt;AppModule</title>
<path fill="none" stroke="black" d="M1096.16,-84.91C1096.16,-84.91 1096.16,-103.79 1096.16,-103.79"/>
<polygon fill="black" stroke="black" points="1092.66,-103.79 1096.16,-113.79 1099.66,-103.79 1092.66,-103.79"/>
</g>
<!-- PostagemEditComponent -->
<g id="node8" class="node">
<title>PostagemEditComponent</title>
<polygon fill="#ffffb3" stroke="black" points="929.6,-84.8 770.4,-84.8 770.4,-48.8 929.6,-48.8 929.6,-84.8"/>
<text text-anchor="middle" x="850" y="-62.6" font-family="Times,serif" font-size="14.00">PostagemEditComponent</text>
</g>
<!-- PostagemEditComponent&#45;&gt;AppModule -->
<g id="edge8" class="edge">
<title>PostagemEditComponent&#45;&gt;AppModule</title>
<path fill="none" stroke="black" d="M850,-85.04C850,-100.37 850,-119.8 850,-119.8 850,-119.8 1062.17,-119.8 1062.17,-119.8"/>
<polygon fill="black" stroke="black" points="1062.17,-123.3 1072.17,-119.8 1062.17,-116.3 1062.17,-123.3"/>
</g>
<!-- RodapeComponent -->
<g id="node9" class="node">
<title>RodapeComponent</title>
<polygon fill="#ffffb3" stroke="black" points="752.1,-84.8 627.9,-84.8 627.9,-48.8 752.1,-48.8 752.1,-84.8"/>
<text text-anchor="middle" x="690" y="-62.6" font-family="Times,serif" font-size="14.00">RodapeComponent</text>
</g>
<!-- RodapeComponent&#45;&gt;AppModule -->
<g id="edge9" class="edge">
<title>RodapeComponent&#45;&gt;AppModule</title>
<path fill="none" stroke="black" d="M690,-84.83C690,-101.86 690,-124.8 690,-124.8 690,-124.8 1062.18,-124.8 1062.18,-124.8"/>
<polygon fill="black" stroke="black" points="1062.18,-128.3 1072.18,-124.8 1062.18,-121.3 1062.18,-128.3"/>
</g>
<!-- SobreComponent -->
<g id="node10" class="node">
<title>SobreComponent</title>
<polygon fill="#ffffb3" stroke="black" points="609.99,-84.8 496.01,-84.8 496.01,-48.8 609.99,-48.8 609.99,-84.8"/>
<text text-anchor="middle" x="553" y="-62.6" font-family="Times,serif" font-size="14.00">SobreComponent</text>
</g>
<!-- SobreComponent&#45;&gt;AppModule -->
<g id="edge10" class="edge">
<title>SobreComponent&#45;&gt;AppModule</title>
<path fill="none" stroke="black" d="M553,-85.02C553,-103.63 553,-129.8 553,-129.8 553,-129.8 1062.29,-129.8 1062.29,-129.8"/>
<polygon fill="black" stroke="black" points="1062.29,-133.3 1072.29,-129.8 1062.29,-126.3 1062.29,-133.3"/>
</g>
<!-- TemaDeleteComponent -->
<g id="node11" class="node">
<title>TemaDeleteComponent</title>
<polygon fill="#ffffb3" stroke="black" points="477.74,-84.8 328.26,-84.8 328.26,-48.8 477.74,-48.8 477.74,-84.8"/>
<text text-anchor="middle" x="403" y="-62.6" font-family="Times,serif" font-size="14.00">TemaDeleteComponent</text>
</g>
<!-- TemaDeleteComponent&#45;&gt;AppModule -->
<g id="edge11" class="edge">
<title>TemaDeleteComponent&#45;&gt;AppModule</title>
<path fill="none" stroke="black" d="M403,-85.02C403,-105.17 403,-134.8 403,-134.8 403,-134.8 1062.18,-134.8 1062.18,-134.8"/>
<polygon fill="black" stroke="black" points="1062.18,-138.3 1072.18,-134.8 1062.18,-131.3 1062.18,-138.3"/>
</g>
<!-- TemaEditComponent -->
<g id="node12" class="node">
<title>TemaEditComponent</title>
<polygon fill="#ffffb3" stroke="black" points="310.04,-84.8 173.96,-84.8 173.96,-48.8 310.04,-48.8 310.04,-84.8"/>
<text text-anchor="middle" x="242" y="-62.6" font-family="Times,serif" font-size="14.00">TemaEditComponent</text>
</g>
<!-- TemaEditComponent&#45;&gt;AppModule -->
<g id="edge12" class="edge">
<title>TemaEditComponent&#45;&gt;AppModule</title>
<path fill="none" stroke="black" d="M242,-84.84C242,-106.46 242,-139.8 242,-139.8 242,-139.8 1062.24,-139.8 1062.24,-139.8"/>
<polygon fill="black" stroke="black" points="1062.24,-143.3 1072.24,-139.8 1062.24,-136.3 1062.24,-143.3"/>
</g>
<!-- UserEditComponent -->
<g id="node13" class="node">
<title>UserEditComponent</title>
<polygon fill="#ffffb3" stroke="black" points="155.59,-84.8 24.41,-84.8 24.41,-48.8 155.59,-48.8 155.59,-84.8"/>
<text text-anchor="middle" x="90" y="-62.6" font-family="Times,serif" font-size="14.00">UserEditComponent</text>
</g>
<!-- UserEditComponent&#45;&gt;AppModule -->
<g id="edge13" class="edge">
<title>UserEditComponent&#45;&gt;AppModule</title>
<path fill="none" stroke="black" d="M90,-84.89C90,-107.93 90,-144.8 90,-144.8 90,-144.8 1062.27,-144.8 1062.27,-144.8"/>
<polygon fill="black" stroke="black" points="1062.27,-148.3 1072.27,-144.8 1062.27,-141.3 1062.27,-148.3"/>
</g>
<!-- AppComponent  -->
<g id="node16" class="node">
<title>AppComponent </title>
<polygon fill="#80b1d3" stroke="black" points="1168.44,-214.8 1059.56,-214.8 1059.56,-178.8 1168.44,-178.8 1168.44,-214.8"/>
<text text-anchor="middle" x="1114" y="-192.6" font-family="Times,serif" font-size="14.00">AppComponent </text>
</g>
<!-- AppModule&#45;&gt;AppComponent  -->
<g id="edge15" class="edge">
<title>AppModule&#45;&gt;AppComponent </title>
<path fill="none" stroke="black" stroke-dasharray="1,5" d="M1114,-149.91C1114,-149.91 1114,-168.79 1114,-168.79"/>
<polygon fill="black" stroke="black" points="1110.5,-168.79 1114,-178.79 1117.5,-168.79 1110.5,-168.79"/>
</g>
<!-- AppRoutingModule -->
<g id="node15" class="node">
<title>AppRoutingModule</title>
<polygon fill="#8dd3c7" stroke="black" points="2087.27,-84.8 2084.27,-88.8 2063.27,-88.8 2060.27,-84.8 1958.73,-84.8 1958.73,-48.8 2087.27,-48.8 2087.27,-84.8"/>
<text text-anchor="middle" x="2023" y="-62.6" font-family="Times,serif" font-size="14.00">AppRoutingModule</text>
</g>
<!-- AppRoutingModule&#45;&gt;AppModule -->
<g id="edge14" class="edge">
<title>AppRoutingModule&#45;&gt;AppModule</title>
<path fill="none" stroke="black" d="M2023,-84.89C2023,-107.93 2023,-144.8 2023,-144.8 2023,-144.8 1165.72,-144.8 1165.72,-144.8"/>
<polygon fill="black" stroke="black" points="1165.72,-141.3 1155.72,-144.8 1165.72,-148.3 1165.72,-141.3"/>
</g>
</g>
</svg>
